<svg xmlns="http://www.w3.org/2000/svg" width="556" height="98" viewBox="0 0 556 98"><g fill="none" fill-rule="evenodd"><path d="m92.27978,13.16541c1.37076,0 2.65309,0.57484 3.89119,1.59185c1.19389,1.01702 1.76872,2.432 1.76872,4.1565c0,0.53062 -0.08844,1.10545 -0.26531,1.81294c0,0 -21.7553,63.67406 -21.7553,63.67406c-0.39796,1.10545 -1.01702,1.90138 -1.9456,2.432c-0.92858,0.57484 -1.85716,0.88436 -2.82996,0.9728c-1.01702,0 -2.03403,-0.26531 -3.05105,-0.84014c-0.9728,-0.57484 -1.68029,-1.4592 -2.12247,-2.56465c0,0 -16.80288,-39.22145 -16.80288,-39.22145c0,0 0.9728,0.39796 0.9728,0.39796c0,0 -16.58179,38.82349 -16.58179,38.82349c-0.57484,1.10545 -1.32654,1.98981 -2.29934,2.56465c-0.92858,0.57484 -1.9456,0.84014 -3.00683,0.84014c-0.92858,-0.08844 -1.85716,-0.39796 -2.78574,-0.9728c-0.92858,-0.53062 -1.54763,-1.32654 -1.85716,-2.432c0,0 -21.7553,-63.67406 -21.7553,-63.67406c-0.26531,-0.70749 -0.35374,-1.28232 -0.35374,-1.81294c0,-1.72451 0.61905,-3.13948 1.9456,-4.1565c1.28232,-1.01702 2.56465,-1.59185 3.93541,-1.59185c1.10545,0 2.12247,0.35374 3.09527,0.92858c0.9728,0.57484 1.59185,1.4592 1.9456,2.60887c0,0 18.35051,54.742 18.35051,54.742c0,0 -1.85716,0 -1.85716,0c0,0 16.09539,-39.44254 16.09539,-39.44254c0.53062,-1.06123 1.19389,-1.90138 2.07825,-2.56465c0.88436,-0.66327 1.90138,-0.92858 3.05105,-0.84014c1.10545,-0.08844 2.07825,0.17687 2.96261,0.84014c0.92858,0.66327 1.59185,1.50342 1.98981,2.56465c0,0 15.29946,38.33709 15.29946,38.33709c0,0 -1.59185,0.79593 -1.59185,0.79593c0,0 18.21786,-54.43247 18.21786,-54.43247c0.39796,-1.14967 1.06123,-2.03403 2.03403,-2.60887c0.9728,-0.57484 2.07825,-0.92858 3.22792,-0.92858zm69.24554,46.73853c0,5.65992 -1.28232,10.70078 -3.80276,15.03415c-2.56465,4.33337 -5.92522,7.73817 -10.17016,10.2586c-4.24494,2.432 -9.02049,3.62588 -14.28244,3.62588c-5.26195,0 -10.03751,-1.19389 -14.32666,-3.62588c-4.28916,-2.52043 -7.69395,-5.92522 -10.21438,-10.2586c-2.47621,-4.33337 -3.71432,-9.37424 -3.71432,-15.03415c0,-5.70413 1.23811,-10.745 3.71432,-15.07837c2.52043,-4.37759 5.92522,-7.78238 10.21438,-10.30282c4.28916,-2.52043 9.06471,-3.80276 14.32666,-3.80276c5.26195,0 10.03751,1.28232 14.28244,3.80276c4.24494,2.52043 7.60551,5.92522 10.17016,10.30282c2.52043,4.33337 3.80276,9.37424 3.80276,15.07837zm-10.65656,0c0,-3.89119 -0.79593,-7.25177 -2.34356,-10.08173c-1.59185,-2.91839 -3.71432,-5.21774 -6.36741,-6.8538c-2.60887,-1.68029 -5.57148,-2.47621 -8.88784,-2.47621c-3.31636,0 -6.27897,0.79593 -8.93206,2.47621c-2.60887,1.63607 -4.73134,3.93541 -6.36741,6.8538c-1.54763,2.82996 -2.34356,6.19053 -2.34356,10.08173c0,3.71432 0.79593,7.03068 2.34356,9.94907c1.63607,2.87418 3.75854,5.17352 6.36741,6.80959c2.65309,1.63607 5.6157,2.432 8.93206,2.432c3.31636,0 6.27897,-0.79593 8.88784,-2.432c2.65309,-1.63607 4.77555,-3.93541 6.36741,-6.80959c1.54763,-2.91839 2.34356,-6.23475 2.34356,-9.94907zm88.92259,-28.47645c1.32654,0 2.52043,0.53062 3.53745,1.59185c1.06123,1.01702 1.59185,2.34356 1.59185,3.93541c0,0.39796 -0.04422,0.75171 -0.13265,1.10545c-0.08844,0.30953 -0.17687,0.61905 -0.30953,0.88436c0,0 -16.22804,45.4562 -16.22804,45.4562c-0.44218,1.23811 -1.23811,2.12247 -2.25512,2.6973c-1.10545,0.61905 -2.16669,0.84014 -3.27214,0.70749c-2.07825,-0.13265 -3.58167,-1.28232 -4.55446,-3.40479c0,0 -12.02732,-31.83703 -12.02732,-31.83703c0,0 2.47621,0.22109 2.47621,0.22109c0,0 -11.05452,31.61594 -11.05452,31.61594c-1.01702,2.12247 -2.52043,3.27214 -4.55446,3.40479c-1.06123,0.13265 -2.12247,-0.08844 -3.22792,-0.70749c-1.10545,-0.57484 -1.85716,-1.4592 -2.29934,-2.6973c0,0 -16.3607,-45.4562 -16.3607,-45.4562c-0.26531,-0.57484 -0.39796,-1.23811 -0.39796,-1.98981c0,-1.4592 0.4864,-2.74152 1.41498,-3.89119c0.9728,-1.06123 2.25512,-1.63607 3.89119,-1.63607c1.14967,0 2.16669,0.30953 3.05105,0.88436c0.84014,0.57484 1.4592,1.41498 1.85716,2.56465c0,0 13.53074,38.29287 13.53074,38.29287c0,0 -2.432,-0.22109 -2.432,-0.22109c0,0 11.05452,-28.96285 11.05452,-28.96285c0.92858,-2.2109 2.52043,-3.31636 4.86399,-3.31636c1.28232,0 2.25512,0.30953 2.96261,0.92858c0.70749,0.53062 1.32654,1.37076 1.72451,2.38778c0,0 11.27561,29.05129 11.27561,29.05129c0,0 -2.91839,0.30953 -2.91839,0.30953c0,0 13.66339,-38.46974 13.66339,-38.46974c0.75171,-2.29934 2.47621,-3.44901 5.1293,-3.44901z" fill="#2E495E" id="svg_2"/>
   <path d="m340.87391,50.61814c0,5.39461 -0.88436,10.43547 -2.60887,15.07837c-1.76872,4.59868 -4.24494,8.66675 -7.47286,12.15998c-3.22792,3.44901 -7.03068,6.14632 -11.45249,8.09191c-4.42181,1.9456 -9.19736,2.87418 -14.4151,2.87418c-5.1293,0 -9.90485,-0.92858 -14.32666,-2.87418c-4.42181,-1.9456 -8.22457,-4.6429 -11.40827,-8.09191c-3.22792,-3.49323 -5.74835,-7.56129 -7.47286,-12.15998c-1.72451,-4.6429 -2.56465,-9.68376 -2.56465,-15.07837c0,-5.30617 0.84014,-10.30282 2.56465,-14.98993c1.72451,-4.6429 4.24494,-8.71096 7.47286,-12.15998c3.1837,-3.44901 6.98646,-6.14632 11.40827,-8.09191c4.42181,-1.9456 9.19736,-2.96261 14.32666,-2.96261c5.21774,0 9.99329,1.01702 14.4151,2.96261c4.42181,1.9456 8.22457,4.6429 11.45249,8.09191c3.22792,3.44901 5.70413,7.51708 7.47286,12.15998c1.72451,4.68712 2.60887,9.68376 2.60887,14.98993zm-11.45249,0c0,-5.17352 -1.06123,-9.86064 -3.13948,-14.06135c-2.07825,-4.20072 -4.95243,-7.51708 -8.62253,-9.90485c-3.71432,-2.38778 -7.91504,-3.58167 -12.73481,-3.58167c-4.73134,0 -8.93206,1.19389 -12.60216,3.58167c-3.71432,2.38778 -6.5885,5.65992 -8.66675,9.81642c-2.03403,4.1565 -3.05105,8.88784 -3.05105,14.14979c0,5.26195 1.01702,9.99329 3.05105,14.19401c2.07825,4.11228 4.95243,7.42864 8.66675,9.86064c3.6701,2.38778 7.87082,3.58167 12.60216,3.58167c4.81977,0 9.02049,-1.19389 12.73481,-3.58167c3.6701,-2.432 6.54428,-5.74835 8.62253,-9.86064c2.07825,-4.20072 3.13948,-8.93206 3.13948,-14.19401zm27.50365,37.18742c-1.54763,0 -2.82996,-0.4864 -3.80276,-1.50342c-0.9728,-1.06123 -1.4592,-2.38778 -1.4592,-3.89119c0,0 0,-45.05824 0,-45.05824c0,-1.50342 0.4864,-2.78574 1.4592,-3.80276c0.9728,-1.01702 2.25512,-1.54763 3.80276,-1.54763c1.50342,0 2.74152,0.53062 3.75854,1.54763c1.01702,1.01702 1.54763,2.29934 1.54763,3.80276c0,0 0,11.89467 0,11.89467c0,0 -1.06123,-4.55446 -1.06123,-4.55446c0.57484,-1.98981 1.41498,-3.80276 2.56465,-5.43883c1.19389,-1.72451 2.60887,-3.22792 4.24494,-4.51025c1.59185,-1.28232 3.40479,-2.29934 5.43883,-2.96261c2.03403,-0.70749 4.1565,-1.06123 6.36741,-1.06123c1.76872,0 3.31636,0.53062 4.68712,1.54763c1.37076,0.9728 2.07825,2.16669 2.07825,3.6701c0,1.90138 -0.53062,3.27214 -1.54763,4.20072c-0.92858,0.88436 -2.03403,1.32654 -3.22792,1.32654c-1.06123,0 -2.12247,-0.26531 -3.09527,-0.70749c-0.9728,-0.44218 -2.12247,-0.70749 -3.44901,-0.70749c-1.54763,0 -3.09527,0.39796 -4.6429,1.19389c-1.54763,0.79593 -2.96261,1.9456 -4.20072,3.44901c-1.32654,1.50342 -2.34356,3.31636 -3.05105,5.39461c-0.75171,2.03403 -1.10545,4.33337 -1.10545,6.8538c0,0 0,25.46962 0,25.46962c0,1.50342 -0.53062,2.82996 -1.54763,3.89119c-1.01702,1.01702 -2.25512,1.50342 -3.75854,1.50342zm79.76944,-78.57555c1.54763,0 2.78574,0.53062 3.80276,1.54763c1.01702,0.9728 1.50342,2.25512 1.50342,3.93541c0,0 0,67.6979 0,67.6979c0,1.50342 -0.4864,2.82996 -1.50342,3.89119c-1.01702,1.01702 -2.25512,1.50342 -3.80276,1.50342c-1.50342,0 -2.78574,-0.4864 -3.80276,-1.50342c-0.9728,-1.06123 -1.4592,-2.38778 -1.4592,-3.89119c0,0 0,-7.64973 0,-7.64973c0,0 2.07825,0.13265 2.07825,0.13265c0,1.23811 -0.4864,2.65309 -1.50342,4.28916c-1.01702,1.54763 -2.432,3.09527 -4.20072,4.59868c-1.76872,1.50342 -3.84697,2.6973 -6.23475,3.6701c-2.38778,0.92858 -4.95243,1.37076 -7.73817,1.37076c-4.81977,0 -9.24158,-1.23811 -13.13277,-3.71432c-3.93541,-2.52043 -7.03068,-5.96944 -9.33002,-10.30282c-2.25512,-4.37759 -3.36058,-9.37424 -3.36058,-15.03415c0,-5.6157 1.10545,-10.61234 3.36058,-14.94572c2.29934,-4.37759 5.35039,-7.78238 9.19736,-10.30282c3.84697,-2.52043 8.18035,-3.80276 12.91168,-3.80276c3.00683,0 5.79257,0.53062 8.35722,1.54763c2.56465,0.9728 4.81977,2.25512 6.72115,3.80276c1.9456,1.50342 3.40479,3.13948 4.46603,4.90821c1.10545,1.68029 1.68029,3.31636 1.68029,4.90821c0,0 -3.27214,0.30953 -3.27214,0.30953c0,0 0,-31.48328 0,-31.48328c0,-1.54763 0.4864,-2.87418 1.4592,-3.89119c1.01702,-1.01702 2.29934,-1.59185 3.80276,-1.59185zm-21.62265,69.86459c3.31636,0 6.23475,-0.84014 8.71096,-2.56465c2.52043,-1.68029 4.51025,-3.97963 5.92522,-6.89802c1.41498,-2.91839 2.16669,-6.19053 2.16669,-9.86064c0,-3.62588 -0.75171,-6.94224 -2.16669,-9.81642c-1.41498,-2.91839 -3.40479,-5.21774 -5.92522,-6.89802c-2.47621,-1.72451 -5.39461,-2.56465 -8.71096,-2.56465c-3.27214,0 -6.19053,0.84014 -8.71096,2.56465c-2.52043,1.68029 -4.51025,3.97963 -5.92522,6.89802c-1.4592,2.87418 -2.16669,6.19053 -2.16669,9.81642c0,3.6701 0.70749,6.94224 2.16669,9.86064c1.41498,2.91839 3.40479,5.21774 5.92522,6.89802c2.52043,1.72451 5.43883,2.56465 8.71096,2.56465zm68.14008,9.72798c-5.83679,0 -10.92187,-1.19389 -15.29946,-3.62588c-4.33337,-2.432 -7.69395,-5.79257 -10.08173,-10.03751c-2.34356,-4.28916 -3.49323,-9.19736 -3.49323,-14.72463c0,-6.19053 1.23811,-11.54092 3.71432,-15.96273c2.52043,-4.42181 5.83679,-7.78238 9.86064,-10.12594c4.11228,-2.38778 8.40144,-3.62588 12.9559,-3.62588c3.40479,0 6.63271,0.70749 9.7722,2.07825c3.1837,1.41498 5.96944,3.31636 8.40144,5.74835c2.34356,2.432 4.28916,5.30617 5.70413,8.57831c1.41498,3.27214 2.16669,6.8538 2.2109,10.745c-0.04422,1.4592 -0.57484,2.60887 -1.63607,3.53745c-1.06123,0.92858 -2.34356,1.37076 -3.75854,1.37076c0,0 -41.16705,0 -41.16705,0c0,0 -2.56465,-9.02049 -2.56465,-9.02049c0,0 39.92894,0 39.92894,0c0,0 -2.03403,1.90138 -2.03403,1.90138c0,0 0,-2.6973 0,-2.6973c-0.22109,-2.47621 -1.06123,-4.6429 -2.56465,-6.45584c-1.50342,-1.90138 -3.31636,-3.36058 -5.48304,-4.37759c-2.12247,-1.06123 -4.37759,-1.59185 -6.80959,-1.59185c-2.12247,0 -4.20072,0.35374 -6.14632,1.06123c-1.98981,0.66327 -3.71432,1.76872 -5.21774,3.22792c-1.4592,1.50342 -2.65309,3.44901 -3.58167,5.88101c-0.92858,2.432 -1.37076,5.43883 -1.37076,9.06471c0,3.89119 0.79593,7.29599 2.432,10.21438c1.59185,2.87418 3.75854,5.17352 6.54428,6.76537c2.78574,1.59185 5.83679,2.34356 9.24158,2.34356c2.52043,0 4.6429,-0.22109 6.36741,-0.75171c1.68029,-0.57484 3.09527,-1.19389 4.20072,-1.98981c1.14967,-0.79593 2.16669,-1.54763 3.05105,-2.2109c1.10545,-0.66327 2.16669,-0.9728 3.1837,-0.9728c1.23811,0 2.29934,0.44218 3.09527,1.28232c0.88436,0.88436 1.32654,1.9456 1.32654,3.1837c0,1.54763 -0.79593,2.96261 -2.34356,4.24494c-1.90138,1.81294 -4.51025,3.49323 -7.87082,4.90821c-3.36058,1.37076 -6.89802,2.03403 -10.56812,2.03403zm41.74188,-1.01702c-1.54763,0 -2.82996,-0.4864 -3.80276,-1.50342c-0.9728,-1.06123 -1.4592,-2.38778 -1.4592,-3.89119c0,0 0,-45.05824 0,-45.05824c0,-1.50342 0.4864,-2.78574 1.4592,-3.80276c0.9728,-1.01702 2.25512,-1.54763 3.80276,-1.54763c1.50342,0 2.74152,0.53062 3.75854,1.54763c1.01702,1.01702 1.54763,2.29934 1.54763,3.80276c0,0 0,11.89467 0,11.89467c0,0 -1.06123,-4.55446 -1.06123,-4.55446c0.57484,-1.98981 1.41498,-3.80276 2.56465,-5.43883c1.19389,-1.72451 2.60887,-3.22792 4.24494,-4.51025c1.59185,-1.28232 3.40479,-2.29934 5.43883,-2.96261c2.03403,-0.70749 4.1565,-1.06123 6.36741,-1.06123c1.76872,0 3.31636,0.53062 4.68712,1.54763c1.37076,0.9728 2.07825,2.16669 2.07825,3.6701c0,1.90138 -0.53062,3.27214 -1.54763,4.20072c-0.92858,0.88436 -2.03403,1.32654 -3.22792,1.32654c-1.06123,0 -2.12247,-0.26531 -3.09527,-0.70749c-0.9728,-0.44218 -2.12247,-0.70749 -3.44901,-0.70749c-1.54763,0 -3.09527,0.39796 -4.6429,1.19389c-1.54763,0.79593 -2.96261,1.9456 -4.20072,3.44901c-1.32654,1.50342 -2.34356,3.31636 -3.05105,5.39461c-0.75171,2.03403 -1.10545,4.33337 -1.10545,6.8538c0,0 0,25.46962 0,25.46962c0,1.50342 -0.53062,2.82996 -1.54763,3.89119c-1.01702,1.01702 -2.25512,1.50342 -3.75854,1.50342z" fill="#00C48D" id="svg_3"/></g></svg>