<svg viewBox="0 0 163 28" height="28" xmlns="http://www.w3.org/2000/svg">
    <g fill="none" fill-rule="evenodd">
      <path class="fill-current" d="M 67.12,7.00 C 67.12,7.00 62.38,24.00 62.38,24.00 62.38,24.00 60.08,24.00 60.08,24.00 60.08,24.00 56.61,11.58 56.61,11.58 56.46,11.05 56.38,10.47 56.34,9.84 56.34,9.84 56.30,9.84 56.30,9.84 56.25,10.43 56.16,11.00 56.00,11.55 56.00,11.55 52.52,24.00 52.52,24.00 52.52,24.00 50.23,24.00 50.23,24.00 50.23,24.00 45.31,7.00 45.31,7.00 45.31,7.00 47.48,7.00 47.48,7.00 47.48,7.00 51.05,20.05 51.05,20.05 51.19,20.59 51.29,21.16 51.33,21.75 51.33,21.75 51.39,21.75 51.39,21.75 51.43,21.34 51.55,20.77 51.75,20.05 51.75,20.05 55.47,7.00 55.47,7.00 55.47,7.00 57.36,7.00 57.36,7.00 57.36,7.00 60.92,20.12 60.92,20.12 61.05,20.59 61.14,21.12 61.20,21.72 61.20,21.72 61.25,21.72 61.25,21.72 61.28,21.31 61.38,20.77 61.56,20.08 61.56,20.08 65.00,7.00 65.00,7.00 65.00,7.00 67.12,7.00 67.12,7.00 Z M 72.97,24.00 C 71.19,24.00 69.77,23.46 68.70,22.39 67.65,21.32 67.12,19.90 67.12,18.14 67.12,16.21 67.68,14.71 68.78,13.62 69.88,12.54 71.38,12.00 73.25,12.00 75.03,12.00 76.42,12.53 77.42,13.58 78.43,14.63 78.94,16.09 78.94,17.95 78.94,19.79 78.39,21.26 77.31,22.36 76.23,23.45 74.78,24.00 72.97,24.00 Z M 73.11,13.62 C 71.87,13.62 70.89,14.02 70.17,14.81 69.45,15.59 69.09,16.68 69.09,18.06 69.09,19.40 69.46,20.45 70.19,21.22 70.91,21.99 71.89,22.38 73.11,22.38 74.35,22.38 75.30,22.00 75.97,21.25 76.63,20.49 76.97,19.41 76.97,18.02 76.97,16.61 76.63,15.53 75.97,14.77 75.30,14.01 74.35,13.62 73.11,13.62 Z M 97.06,12.00 C 97.06,12.00 93.47,24.00 93.47,24.00 93.47,24.00 91.47,24.00 91.47,24.00 91.47,24.00 89.00,15.41 89.00,15.41 88.91,15.09 88.84,14.71 88.81,14.30 88.81,14.30 88.77,14.30 88.77,14.30 88.74,14.58 88.66,14.95 88.52,15.39 88.52,15.39 85.84,24.00 85.84,24.00 85.84,24.00 83.92,24.00 83.92,24.00 83.92,24.00 80.28,12.00 80.28,12.00 80.28,12.00 82.30,12.00 82.30,12.00 82.30,12.00 84.78,21.03 84.78,21.03 84.86,21.30 84.92,21.66 84.95,22.11 84.95,22.11 85.05,22.11 85.05,22.11 85.07,21.77 85.13,21.40 85.25,21.00 85.25,21.00 88.02,12.00 88.02,12.00 88.02,12.00 89.78,12.00 89.78,12.00 89.78,12.00 92.27,21.05 92.27,21.05 92.34,21.34 92.39,21.70 92.44,22.12 92.44,22.12 92.53,22.12 92.53,22.12 92.54,21.82 92.61,21.46 92.73,21.05 92.73,21.05 95.17,12.00 95.17,12.00 95.17,12.00 97.06,12.00 97.06,12.00 Z" />
      <path class="fill-nuxt-lightgreen" fill="#00C58E" d="M 108.98,24.00 C 106.60,24.00 104.69,23.23 103.25,21.70 101.82,20.16 101.11,18.16 101.11,15.69 101.11,13.04 101.84,10.93 103.30,9.36 104.77,7.79 106.75,7.00 109.27,7.00 111.59,7.00 113.46,7.77 114.88,9.30 116.29,10.83 117.00,12.83 117.00,15.30 117.00,17.98 116.27,20.09 114.81,21.66 113.36,23.22 111.42,24.00 108.98,24.00 Z M 109.12,8.78 C 107.36,8.78 105.93,9.40 104.83,10.64 103.72,11.88 103.17,13.51 103.17,15.53 103.17,17.54 103.71,19.16 104.78,20.39 105.85,21.62 107.25,22.23 108.98,22.23 110.83,22.23 112.28,21.65 113.34,20.48 114.41,19.31 114.94,17.67 114.94,15.56 114.94,13.40 114.42,11.73 113.39,10.55 112.36,9.37 110.94,8.78 109.12,8.78 Z M 126.20,14.00 C 125.87,14.00 125.38,14.00 124.75,14.00 123.94,14.00 123.25,14.37 122.70,15.11 122.15,15.85 121.88,16.86 121.88,18.14 121.88,18.14 121.88,24.00 121.88,24.00 121.88,24.00 119.95,24.00 119.95,24.00 119.95,24.00 119.95,12.00 119.95,12.00 119.95,12.00 121.88,12.00 121.88,12.00 121.88,12.00 121.88,14.91 121.88,14.91 121.88,14.91 121.92,14.91 121.92,14.91 122.19,13.99 122.61,13.28 123.17,12.77 123.73,12.26 124.36,12.00 125.06,12.00 125.56,12.00 125.94,12.05 126.20,12.16 126.20,12.16 126.20,14.00 126.20,14.00 Z M 138.19,24.00 C 138.19,24.00 136.27,24.00 136.27,24.00 136.27,24.00 136.27,21.67 136.27,21.67 136.27,21.67 136.22,21.67 136.22,21.67 135.33,23.23 133.96,24.00 132.09,24.00 130.58,24.00 129.38,23.49 128.47,22.47 127.57,21.44 127.12,20.04 127.12,18.27 127.12,16.37 127.62,14.86 128.62,13.72 129.62,12.57 130.96,12.00 132.62,12.00 134.27,12.00 135.47,12.65 136.22,13.95 136.22,13.95 136.27,13.95 136.27,13.95 136.27,13.95 136.27,6.00 136.27,6.00 136.27,6.00 138.19,6.00 138.19,6.00 138.19,6.00 138.19,24.00 138.19,24.00 Z M 136.27,18.53 C 136.27,18.53 136.27,16.88 136.27,16.88 136.27,15.97 135.94,15.20 135.30,14.58 134.66,13.95 133.85,13.62 132.88,13.62 131.70,13.62 130.77,14.03 130.09,14.84 129.43,15.65 129.09,16.76 129.09,18.17 129.09,19.48 129.41,20.50 130.06,21.25 130.71,22.00 131.57,22.38 132.66,22.38 133.73,22.38 134.60,22.02 135.27,21.30 135.93,20.57 136.27,19.65 136.27,18.53 Z M 151.59,18.62 C 151.59,18.62 143.12,18.62 143.12,18.62 143.16,19.82 143.52,20.75 144.20,21.41 144.89,22.05 145.84,22.38 147.05,22.38 148.39,22.38 149.63,21.92 150.77,21.00 150.77,21.00 150.77,22.83 150.77,22.83 149.71,23.61 148.32,24.00 146.58,24.00 144.88,24.00 143.55,23.48 142.58,22.44 141.61,21.40 141.12,19.93 141.12,18.05 141.12,16.27 141.65,14.81 142.70,13.69 143.77,12.56 145.08,12.00 146.66,12.00 148.23,12.00 149.44,12.50 150.30,13.50 151.16,14.49 151.59,15.87 151.59,17.64 151.59,17.64 151.59,18.62 151.59,18.62 Z M 149.62,17.00 C 149.61,15.94 149.34,15.11 148.81,14.52 148.29,13.92 147.56,13.62 146.62,13.62 145.72,13.62 144.95,13.94 144.31,14.56 143.68,15.19 143.29,16.00 143.14,17.00 143.14,17.00 149.62,17.00 149.62,17.00 Z M 161.20,14.00 C 160.87,14.00 160.38,14.00 159.75,14.00 158.94,14.00 158.25,14.37 157.70,15.11 157.15,15.85 156.88,16.86 156.88,18.14 156.88,18.14 156.88,24.00 156.88,24.00 156.88,24.00 154.95,24.00 154.95,24.00 154.95,24.00 154.95,12.00 154.95,12.00 154.95,12.00 156.88,12.00 156.88,12.00 156.88,12.00 156.88,14.91 156.88,14.91 156.88,14.91 156.92,14.91 156.92,14.91 157.19,13.99 157.61,13.28 158.17,12.77 158.73,12.26 159.36,12.00 160.06,12.00 160.56,12.00 160.94,12.05 161.20,12.16 161.20,12.16 161.20,14.00 161.20,14.00 Z" />
      <path d="M2.33333333 25.5383333h8.82388887c.0504817-.3348565.1583603-.6584924.3188889-.9566666l8.2755556-14.5522223-4.305-7.56777773L2.33333333 25.5383333zM30.8933333 25.5383333H35L24.22 6.58777778l-1.9444444 3.44166662 8.26 14.5522223c.1760377.2946737.297253.6187929.3577777.9566666zM21.0077778 12.2383333l-7.5638889 13.3h15.1238889z" />
      <path class="fill-nuxt-lightgreen" fill="#00C58E" d="M11.3633333 26.7866667a1.37669204 1.37669204 0 0 1-.0738889-.1516667c-.1491638-.3450868-.1950914-.7260156-.1322222-1.0966667H2.33333333L15.4466667 2.46166667l4.305 7.56777773L21 7.82055556l-3.7527778-6.61111112C17.1422222 1.01888889 16.5083333 0 15.4155556 0c-.4938889 0-1.2016667.21388889-1.7772223 1.225L.35388889 24.5816667c-.11277778.2022222-.66111111 1.2638889-.11666667 2.205.2488889.4277777.77777778.9372222 1.94444445.9372222H13.3077778c-1.1588889 0-1.6955556-.5016667-1.9444445-.9372222z" />
      <path class="fill-nuxt-green" fill="#108775" d="M36.9444444 24.5816667L26.0283333 5.35111111c-.1127777-.20222222-.7427777-1.225-1.8394444-1.225-.4938889 0-1.2016667.21-1.7772222 1.22111111L21 7.82055556l1.2561111 2.20888884 1.9444445-3.44166662L35 25.5383333h-4.1066667c.0525492.3132796.0230739.6348285-.0855555.9333334a1.18999367 1.18999367 0 0 1-.0855556.1905555l-.035.07c-.5522222.9411111-1.7461111.9916667-1.9794444.9916667h6.4244444c.2372222 0 1.4272222-.0505556 1.9794445-.9916667.245-.4277778.42-1.1472222-.1672223-2.1505555z" />
      <path class="fill-current" d="M30.6872222 26.7322222l.035-.07a1.18999367 1.18999367 0 0 0 .0855556-.1905555c.1086294-.2985049.1381047-.6200538.0855555-.9333334-.0605247-.3378737-.18174-.6619929-.3577777-.9566666l-8.2716667-14.5522223L21 7.82055556l-1.2561111 2.20888884-8.2677778 14.5522223c-.1605286.2981742-.2684072.6218101-.3188889.9566666-.0665405.369528-.0246696.750418.1205556 1.0966667a1.37665623 1.37665623 0 0 0 .0738889.1516667c.2488889.4277777.7777777.9372222 1.9444444.9372222h15.4c.245 0 1.4388889-.0505556 1.9911111-.9916667zM21 12.2383333l7.56 13.3H13.4438889L21 12.2383333z" fill-rule="nonzero" />
    </g>
  </svg>