<svg viewBox="0 0 163 28" height="28" xmlns="http://www.w3.org/2000/svg">
    <g fill="none" fill-rule="evenodd">
      <path class="fill-current" d="m55.03,9.12c0.31,0 0.6,0.13 0.88,0.36c0.27,0.23 0.4,0.55 0.4,0.94c0,0.12 -0.02,0.25 -0.06,0.41c0,0 -4.92,14.4 -4.92,14.4c-0.09,0.25 -0.23,0.43 -0.44,0.55c-0.21,0.13 -0.42,0.2 -0.64,0.22c-0.23,0 -0.46,-0.06 -0.69,-0.19c-0.22,-0.13 -0.38,-0.33 -0.48,-0.58c0,0 -3.66,-8.61 -3.66,-8.61c0,0 -3.67,8.61 -3.67,8.61c-0.13,0.25 -0.3,0.45 -0.52,0.58c-0.21,0.13 -0.44,0.19 -0.68,0.19c-0.21,-0.02 -0.42,-0.09 -0.63,-0.22c-0.21,-0.12 -0.35,-0.3 -0.42,-0.55c0,0 -4.92,-14.4 -4.92,-14.4c-0.06,-0.16 -0.08,-0.29 -0.08,-0.41c0,-0.39 0.14,-0.71 0.44,-0.94c0.29,-0.23 0.58,-0.36 0.89,-0.36c0.25,0 0.48,0.08 0.7,0.21c0.22,0.13 0.36,0.33 0.44,0.59c0,0 3.98,11.82 3.98,11.82c0,0 3.39,-8.36 3.39,-8.36c0.12,-0.24 0.27,-0.43 0.47,-0.58c0.2,-0.15 0.43,-0.21 0.69,-0.19c0.25,-0.02 0.47,0.04 0.67,0.19c0.21,0.15 0.36,0.34 0.45,0.58c0,0 3.29,8.28 3.29,8.28c0,0 3.93,-11.74 3.93,-11.74c0.09,-0.26 0.24,-0.46 0.46,-0.59c0.22,-0.13 0.47,-0.21 0.73,-0.21zm15.66,10.57c0,1.28 -0.29,2.42 -0.86,3.4c-0.58,0.98 -1.34,1.75 -2.3,2.32c-0.96,0.55 -2.04,0.82 -3.23,0.82c-1.19,0 -2.27,-0.27 -3.24,-0.82c-0.97,-0.57 -1.74,-1.34 -2.31,-2.32c-0.56,-0.98 -0.84,-2.12 -0.84,-3.4c0,-1.29 0.28,-2.43 0.84,-3.41c0.57,-0.99 1.34,-1.76 2.31,-2.33c0.97,-0.57 2.05,-0.86 3.24,-0.86c1.19,0 2.27,0.29 3.23,0.86c0.96,0.57 1.72,1.34 2.3,2.33c0.57,0.98 0.86,2.12 0.86,3.41zm-2.41,0c0,-0.88 -0.18,-1.64 -0.53,-2.28c-0.36,-0.66 -0.84,-1.18 -1.44,-1.55c-0.59,-0.38 -1.26,-0.56 -2.01,-0.56c-0.75,0 -1.42,0.18 -2.02,0.56c-0.59,0.37 -1.07,0.89 -1.44,1.55c-0.35,0.64 -0.53,1.4 -0.53,2.28c0,0.84 0.18,1.59 0.53,2.25c0.37,0.65 0.85,1.17 1.44,1.54c0.6,0.37 1.27,0.55 2.02,0.55c0.75,0 1.42,-0.18 2.01,-0.55c0.6,-0.37 1.08,-0.89 1.44,-1.54c0.35,-0.66 0.53,-1.41 0.53,-2.25zm20.11,-6.44c0.3,0 0.57,0.12 0.8,0.36c0.24,0.23 0.36,0.53 0.36,0.89c0,0.09 -0.01,0.17 -0.03,0.25c-0.02,0.07 -0.04,0.14 -0.07,0.2c0,0 -3.67,10.28 -3.67,10.28c-0.1,0.28 -0.28,0.48 -0.51,0.61c-0.25,0.14 -0.49,0.19 -0.74,0.16c-0.47,-0.03 -0.81,-0.29 -1.03,-0.77c0,0 -2.4,-6.46 -2.4,-6.46c0,0 -2.26,6.46 -2.26,6.46c-0.23,0.48 -0.57,0.74 -1.03,0.77c-0.24,0.03 -0.48,-0.02 -0.73,-0.16c-0.25,-0.13 -0.42,-0.33 -0.52,-0.61c0,0 -3.7,-10.28 -3.7,-10.28c-0.06,-0.13 -0.09,-0.28 -0.09,-0.45c0,-0.33 0.11,-0.62 0.32,-0.88c0.22,-0.24 0.51,-0.37 0.88,-0.37c0.26,0 0.49,0.07 0.69,0.2c0.19,0.13 0.33,0.32 0.42,0.58c0,0 2.8,7.93 2.8,7.93c0,0 2.21,-5.87 2.21,-5.87c0.21,-0.5 0.57,-0.75 1.1,-0.75c0.29,0 0.51,0.07 0.67,0.21c0.16,0.12 0.3,0.31 0.39,0.54c0,0 2.22,5.72 2.22,5.72c0,0 2.76,-7.78 2.76,-7.78c0.17,-0.52 0.56,-0.78 1.16,-0.78z" />
      <path class="fill-nuxt-lightgreen" fill="#00C58E" d="m111.25,17.59c0,1.22 -0.2,2.36 -0.59,3.41c-0.4,1.04 -0.96,1.96 -1.69,2.75c-0.73,0.78 -1.59,1.39 -2.59,1.83c-1,0.44 -2.08,0.65 -3.26,0.65c-1.16,0 -2.24,-0.21 -3.24,-0.65c-1,-0.44 -1.86,-1.05 -2.58,-1.83c-0.73,-0.79 -1.3,-1.71 -1.69,-2.75c-0.39,-1.05 -0.58,-2.19 -0.58,-3.41c0,-1.2 0.19,-2.33 0.58,-3.39c0.39,-1.05 0.96,-1.97 1.69,-2.75c0.72,-0.78 1.58,-1.39 2.58,-1.83c1,-0.44 2.08,-0.67 3.24,-0.67c1.18,0 2.26,0.23 3.26,0.67c1,0.44 1.86,1.05 2.59,1.83c0.73,0.78 1.29,1.7 1.69,2.75c0.39,1.06 0.59,2.19 0.59,3.39zm-2.59,0c0,-1.17 -0.24,-2.23 -0.71,-3.18c-0.47,-0.95 -1.12,-1.7 -1.95,-2.24c-0.84,-0.54 -1.79,-0.81 -2.88,-0.81c-1.07,0 -2.02,0.27 -2.85,0.81c-0.84,0.54 -1.49,1.28 -1.96,2.22c-0.46,0.94 -0.69,2.01 -0.69,3.2c0,1.19 0.23,2.26 0.69,3.21c0.47,0.93 1.12,1.68 1.96,2.23c0.83,0.54 1.78,0.81 2.85,0.81c1.09,0 2.04,-0.27 2.88,-0.81c0.83,-0.55 1.48,-1.3 1.95,-2.23c0.47,-0.95 0.71,-2.02 0.71,-3.21zm6.22,8.41c-0.35,0 -0.64,-0.11 -0.86,-0.34c-0.22,-0.24 -0.33,-0.54 -0.33,-0.88c0,0 0,-10.19 0,-10.19c0,-0.34 0.11,-0.63 0.33,-0.86c0.22,-0.23 0.51,-0.35 0.86,-0.35c0.34,0 0.62,0.12 0.85,0.35c0.23,0.23 0.35,0.52 0.35,0.86c0,0 -0.01,0.93 -0.01,0.93c0,0 0.09,-0.13 0.35,-0.5c0.27,-0.39 0.59,-0.73 0.96,-1.02c0.36,-0.29 0.77,-0.52 1.23,-0.67c0.46,-0.16 0.94,-0.24 1.44,-0.24c0.4,0 0.75,0.12 1.06,0.35c0.31,0.22 0.47,0.49 0.47,0.83c0,0.43 -0.12,0.74 -0.35,0.95c-0.21,0.2 -0.46,0.3 -0.73,0.3c-0.24,0 -0.48,-0.06 -0.7,-0.16c-0.22,-0.1 -0.48,-0.16 -0.78,-0.16c-0.35,0 -0.7,0.09 -1.05,0.27c-0.35,0.18 -0.67,0.44 -0.95,0.78c-0.3,0.34 -0.53,0.75 -0.69,1.22c-0.17,0.46 -0.25,0.98 -0.25,1.55c0,0 0,5.76 0,5.76c0,0.34 -0.12,0.64 -0.35,0.88c-0.23,0.23 -0.51,0.34 -0.85,0.34zm18.04,-17.77c0.35,0 0.63,0.12 0.86,0.35c0.23,0.22 0.34,0.51 0.34,0.89c0,0 0,15.31 0,15.31c0,0.34 -0.11,0.64 -0.34,0.88c-0.23,0.23 -0.51,0.34 -0.86,0.34c-0.34,0 -0.63,-0.11 -0.86,-0.34c-0.22,-0.24 -0.33,-0.54 -0.33,-0.88c0,0 0.01,-0.55 0.01,-0.55c0,0 -0.43,0.52 -0.83,0.86c-0.4,0.34 -0.87,0.61 -1.41,0.83c-0.54,0.21 -1.12,0.31 -1.75,0.31c-1.09,0 -2.09,-0.28 -2.97,-0.84c-0.89,-0.57 -1.59,-1.35 -2.11,-2.33c-0.51,-0.99 -0.76,-2.12 -0.76,-3.4c0,-1.27 0.25,-2.4 0.76,-3.38c0.52,-0.99 1.21,-1.76 2.08,-2.33c0.87,-0.57 1.85,-0.86 2.92,-0.86c0.68,0 1.31,0.12 1.89,0.35c0.58,0.22 1.09,0.51 1.52,0.86c0.44,0.34 0.67,0.66 0.67,0.66c0,0 -0.02,-5.49 -0.02,-5.49c0,-0.35 0.11,-0.65 0.33,-0.88c0.23,-0.23 0.52,-0.36 0.86,-0.36zm-4.89,15.8c0.75,0 1.41,-0.19 1.97,-0.58c0.57,-0.38 1.02,-0.9 1.34,-1.56c0.32,-0.66 0.49,-1.4 0.49,-2.23c0,-0.82 -0.17,-1.57 -0.49,-2.22c-0.32,-0.66 -0.77,-1.18 -1.34,-1.56c-0.56,-0.39 -1.22,-0.58 -1.97,-0.58c-0.74,0 -1.4,0.19 -1.97,0.58c-0.57,0.38 -1.02,0.9 -1.34,1.56c-0.33,0.65 -0.49,1.4 -0.49,2.22c0,0.83 0.16,1.57 0.49,2.23c0.32,0.66 0.77,1.18 1.34,1.56c0.57,0.39 1.23,0.58 1.97,0.58zm15.41,2.2c-1.32,0 -2.47,-0.27 -3.46,-0.82c-0.98,-0.55 -1.74,-1.31 -2.28,-2.27c-0.53,-0.97 -0.79,-2.08 -0.79,-3.33c0,-1.4 0.28,-2.61 0.84,-3.61c0.57,-1 1.32,-1.76 2.23,-2.29c0.93,-0.54 1.9,-0.82 2.93,-0.82c0.77,0 1.5,0.16 2.21,0.47c0.72,0.32 1.35,0.75 1.9,1.3c0.53,0.55 0.97,1.2 1.29,1.94c0.32,0.74 0.49,1.55 0.5,2.43c-0.01,0.33 -0.13,0.59 -0.37,0.8c-0.24,0.21 -0.53,0.31 -0.85,0.31c0,0 -8.34,0 -8.34,0c0,0 -0.03,-0.49 -0.03,-0.49c0,0 0.02,-0.85 0.02,-0.85c0,0 0.1,-0.7 0.1,-0.7c0,0 6.93,-0.01 6.93,-0.01c0,0 0,-0.17 0,-0.17c-0.05,-0.56 -0.24,-1.05 -0.58,-1.46c-0.34,-0.43 -0.75,-0.76 -1.24,-0.99c-0.48,-0.24 -0.99,-0.36 -1.54,-0.36c-0.48,0 -0.95,0.08 -1.39,0.24c-0.45,0.15 -0.84,0.4 -1.18,0.73c-0.33,0.34 -0.6,0.78 -0.81,1.33c-0.21,0.55 -0.31,1.23 -0.31,2.05c0,0.88 0.18,1.65 0.55,2.31c0.36,0.65 0.85,1.17 1.48,1.53c0.63,0.36 1.32,0.53 2.09,0.53c0.57,0 1.05,-0.05 1.44,-0.17c0.38,-0.13 0.7,-0.27 0.95,-0.45c0.26,-0.18 0.49,-0.35 0.69,-0.5c0.25,-0.15 0.49,-0.22 0.72,-0.22c0.28,0 0.52,0.1 0.7,0.29c0.2,0.2 0.3,0.44 0.3,0.72c0,0.35 -0.18,0.67 -0.53,0.96c-0.43,0.41 -1.02,0.79 -1.78,1.11c-0.76,0.31 -1.56,0.46 -2.39,0.46zm9.44,-0.23c-0.35,0 -0.64,-0.11 -0.86,-0.34c-0.22,-0.24 -0.33,-0.54 -0.33,-0.88c0,0 0,-10.19 0,-10.19c0,-0.34 0.11,-0.63 0.33,-0.86c0.22,-0.23 0.51,-0.35 0.86,-0.35c0.34,0 0.62,0.12 0.85,0.35c0.23,0.23 0.35,0.52 0.35,0.86c0,0 -0.01,1.02 -0.01,1.02c0,0 0.09,-0.22 0.35,-0.59c0.27,-0.39 0.59,-0.73 0.96,-1.02c0.36,-0.29 0.77,-0.52 1.23,-0.67c0.46,-0.16 0.94,-0.24 1.44,-0.24c0.4,0 0.75,0.12 1.06,0.35c0.31,0.22 0.47,0.49 0.47,0.83c0,0.43 -0.12,0.74 -0.35,0.95c-0.21,0.2 -0.46,0.3 -0.73,0.3c-0.24,0 -0.48,-0.06 -0.7,-0.16c-0.22,-0.1 -0.48,-0.16 -0.78,-0.16c-0.35,0 -0.7,0.09 -1.05,0.27c-0.35,0.18 -0.67,0.44 -0.95,0.78c-0.3,0.34 -0.53,0.75 -0.69,1.22c-0.17,0.46 -0.25,0.98 -0.25,1.55c0,0 0,5.76 0,5.76c0,0.34 -0.12,0.64 -0.35,0.88c-0.23,0.23 -0.51,0.34 -0.85,0.34z" />
      <path class="fill-nuxt-lightgreen" fill="#00C58E" d="m19.27238,20.20885l-2.02929,-2.02929l-1.13623,-1.13635l-1.2222,-1.2222c-0.38073,-0.38073 -0.99801,-0.38073 -1.37875,0l-4.38784,4.38784c-0.38073,0.38073 -0.38073,0.99801 0,1.37875l4.38784,4.38784c0.38073,0.38073 0.99801,0.38073 1.37875,0l4.38784,-4.38784c0.38051,-0.38073 0.38051,-0.99801 -0.00012,-1.37875z" />
      <path class="fill-nuxt-lightgreen" fill="#00C58E" d="m12.33299,13.26956l-4.38784,-4.38784c-0.38073,-0.38073 -0.99801,-0.38073 -1.37875,0l-4.38784,4.38784c-0.38073,0.38073 -0.38073,0.99801 0,1.37875l4.38784,4.38784c0.38073,0.38073 0.99801,0.38073 1.37875,0l4.38784,-4.38784c0.38073,-0.38084 0.38073,-0.99801 0,-1.37875z" />
      <path class="fill-nuxt-green" fill="#108775" d="m19.27238,6.33017l-4.38784,-4.38784c-0.38073,-0.38073 -0.99801,-0.38073 -1.37875,0l-1.15402,1.15402l-1.13646,1.13646l-2.09724,2.09736c-0.38073,0.38073 -0.38073,0.99801 0,1.37875l4.38784,4.38784c0.38073,0.38073 0.99801,0.38073 1.37875,0l4.38784,-4.38784c0.38051,-0.38073 0.38051,-0.99801 -0.00012,-1.37875l-0.00001,0.00001z" />
      <path class="fill-current" d="m26.21167,13.26956l-4.38784,-4.38784c-0.38073,-0.38073 -0.99801,-0.38073 -1.37864,0l-4.38784,4.38784c-0.38073,0.38073 -0.38073,0.99801 0,1.37875l4.38784,4.38784c0.38073,0.38073 0.99801,0.38073 1.37864,0l4.38784,-4.38784c0.38073,-0.38084 0.38073,-0.99801 0,-1.37875z" fill-rule="nonzero" />
    </g>
  </svg>